<?xml version="1.0" standalone="no"?>
<!DOCTYPE svg PUBLIC "-//W3C//DTD SVG 20010904//EN"
 "http://www.w3.org/TR/2001/REC-SVG-20010904/DTD/svg10.dtd">
<svg version="1.0" xmlns="http://www.w3.org/2000/svg"
 width="709.000000pt" height="709.000000pt" viewBox="0 0 709.000000 709.000000"
 preserveAspectRatio="xMidYMid meet">

<g transform="translate(0.000000,709.000000) scale(0.100000,-0.100000)"
fill="#000000" stroke="none">
<path d="M3320 7084 c-515 -44 -936 -157 -1353 -365 -1012 -505 -1725 -1463
-1916 -2574 -36 -213 -46 -335 -46 -595 0 -344 27 -572 106 -885 200 -791 681
-1498 1352 -1988 427 -312 924 -523 1457 -621 74 -13 185 -30 245 -37 145 -18
615 -18 760 0 838 100 1566 454 2148 1043 509 517 847 1178 966 1890 38 226
45 320 45 593 0 273 -7 367 -45 593 -119 712 -457 1373 -966 1890 -573 580
-1289 933 -2105 1037 -116 15 -547 28 -648 19z m844 -453 c152 -27 326 -85
480 -161 67 -32 256 -137 421 -233 165 -95 494 -285 730 -422 237 -136 471
-272 522 -301 134 -78 204 -147 256 -252 41 -84 42 -87 42 -191 0 -101 -2
-109 -37 -184 -90 -188 -270 -293 -474 -274 -101 10 -110 14 -849 442 -951
551 -1036 598 -1169 642 -75 25 -93 27 -246 27 -150 0 -173 -3 -253 -27 -160
-49 -275 -118 -396 -238 -100 -99 -184 -230 -224 -351 -33 -97 -38 -210 -47
-1251 l-10 -1047 -35 -70 c-48 -95 -139 -186 -230 -231 -68 -33 -72 -34 -200
-34 -128 0 -132 1 -200 34 -91 45 -189 142 -233 234 l-33 67 4 1148 c4 1282
-2 1172 79 1421 135 418 385 742 758 984 232 150 490 245 765 282 144 20 427
13 579 -14z m-177 -1363 c73 -27 130 -58 723 -401 1206 -696 1190 -686 1371
-874 161 -167 285 -340 358 -497 169 -367 220 -789 141 -1178 -103 -502 -399
-926 -842 -1204 -264 -166 -1571 -915 -1741 -998 -38 -19 -78 -29 -129 -33
-197 -15 -378 90 -462 267 -30 62 -31 71 -31 190 0 122 1 127 33 191 45 90 82
131 160 182 95 61 501 303 743 443 849 488 945 544 1007 591 288 216 418 583
335 947 -52 229 -198 422 -433 570 -63 41 -320 191 -570 336 -1034 597 -1135
659 -1196 742 -72 98 -86 151 -82 298 3 112 7 130 30 176 119 229 365 335 585
252z m-2836 8 c158 -34 271 -126 347 -282 l29 -59 7 -1087 6 -1087 40 -106
c64 -172 94 -219 210 -336 58 -58 134 -124 170 -147 96 -62 235 -119 320 -133
100 -15 337 -6 410 16 63 20 224 99 361 178 234 134 373 215 639 369 454 262
795 455 889 503 113 57 277 54 400 -6 80 -40 177 -134 210 -204 75 -160 67
-339 -21 -477 -50 -79 -137 -143 -418 -305 -1485 -862 -1537 -890 -1735 -947
-366 -105 -667 -113 -1009 -26 -144 37 -266 84 -405 157 -198 103 -332 204
-488 366 -220 230 -371 507 -460 846 l-36 136 -6 445 c-4 245 -7 751 -6 1125
1 664 1 681 22 742 54 160 183 279 346 319 69 16 99 16 178 0z"/>
</g>
</svg>
